# xmcd
#
# Track frame offsets:
#        150
#        12917
#        28667
#        42760
#        64145
#        82042
#        97650
#        112232
#        126592
#        152337
#        164590
#        179842
#        201452
#        217280
#        231917
#        259780
#        272600
#        285495
#        315660
#        334860
#
# Disc length: 4660 seconds
#
# Revision: 0
# Processed by: cddbd v1.5.1PL0 Copyright (c) Steve Scherf et al.
# Submitted via: ExactAudioCopy v0.95a5
#
DISCID=2f123214
DTITLE=Various Artist - Stax Blues New Standards
DYEAR=1999
DGENRE=Blues
TTITLE0=John Lee Hooker - Please Don't Go
TTITLE1=John Lee Hooker - My Love Comes Down For You
TTITLE2=Booker T. and The MG's - Born Under A Bad Sign
TTITLE3=Albert King - Oh, Pretty Woman
TTITLE4=Albert King - Breaking Up Somebody's Home
TTITLE5=Albert King - King Of Kings
TTITLE6=Johnnie Taylor - Woman Across The River
TTITLE7=Johnnie Taylor - Toe Hold
TTITLE8=Johnnie Taylor - Don't You Fool With My Soul (Part 1&2)
TTITLE9=Billy Eckstine - Living Like A Gipcy
TTITLE10=Freddie Robinson - The Creeper
TTITLE11=Freddie Robinson - After Hours
TTITLE12=Jimmy McCracklin - Double Dealing
TTITLE13=Jimmy McCracklin - Just Got To Know
TTITLE14=Little Milton - Walking The Back Streets And Crying
TTITLE15=Little Milton - I'm Living Off The Love You Give
TTITLE16=Little Milton - Lovin' Stick
TTITLE17=Little Sonny - Eli's Pork Chop
TTITLE18=Littole Sonny - The Creeper Returns
TTITLE19=Booker T. and The MG's - Foxy Lady
EXTD=
EXTT0=
EXTT1=
EXTT2=
EXTT3=
EXTT4=
EXTT5=
EXTT6=
EXTT7=
EXTT8=
EXTT9=
EXTT10=
EXTT11=
EXTT12=
EXTT13=
EXTT14=
EXTT15=
EXTT16=
EXTT17=
EXTT18=
EXTT19=
PLAYORDER=
